<?xml version="1.0" encoding="UTF-8" standalone="no"?><!DOCTYPE svg PUBLIC "-//W3C//DTD SVG 1.1//EN" "http://www.w3.org/Graphics/SVG/1.1/DTD/svg11.dtd"><svg width="100%" height="100%" viewBox="0 0 64 64" version="1.1" xmlns="http://www.w3.org/2000/svg" xmlns:xlink="http://www.w3.org/1999/xlink" xml:space="preserve" xmlns:serif="http://www.serif.com/" style="fill-rule:evenodd;clip-rule:evenodd;stroke-linecap:square;stroke-linejoin:round;stroke-miterlimit:1.5;"><rect id="Artboard1" x="-69" y="-74" width="280.361" height="302.844" style="fill:none;"/><path d="M-42.551,12.307c-10.123,5.845 -13.597,18.809 -7.752,28.933c5.845,10.123 18.809,13.597 28.932,7.752c-5.8,-1.996 -12.578,-7.201 -16.906,-14.696c-4.327,-7.495 -5.445,-15.967 -4.274,-21.989Z" style="fill:none;stroke:#ffffff;stroke-width:5px;"/><path d="M50,20.961c0,-4.619 -3.75,-8.369 -8.369,-8.369l-19.262,0c-4.619,0 -8.369,3.75 -8.369,8.369l0,22.078c0,4.619 3.75,8.369 8.369,8.369l19.262,0c4.619,0 8.369,-3.75 8.369,-8.369l0,-22.078Z" style="fill:none;stroke:#ffffff;stroke-width:5px;"/><path d="M14,22.781l36,0" style="fill:none;stroke:#ffffff;stroke-width:5px;stroke-linecap:round;"/><path d="M24.796,38.348l1.492,0c1.473,0 2.264,0.601 2.264,1.727c0,1.006 -0.801,1.672 -1.923,1.672c-0.631,0 -1.132,-0.153 -1.482,-0.47c-0.351,-0.306 -0.551,-0.677 -0.601,-1.126l-4.046,0c0.13,3.147 2.604,5.19 6.129,5.19c3.855,0 6.238,-1.911 6.238,-4.927c0,-2.088 -1.362,-3.432 -3.564,-3.672l0,-0.087c1.591,-0.35 2.963,-1.628 2.963,-3.661c0,-2.808 -2.453,-4.294 -5.657,-4.294c-3.355,0 -5.648,1.966 -5.758,5.081l3.825,0c0.08,-1.017 0.781,-1.706 1.933,-1.706c1.032,0 1.753,0.547 1.753,1.585c0,1.017 -0.762,1.64 -2.073,1.64l-1.493,0l0,3.048Z" style="fill:#ffffff;fill-rule:nonzero;"/><path d="M37.986,44.904l4.245,0l0,-15.767l-4.245,0l-3.626,2.644l0,3.879l3.546,-2.557l0.08,0l0,11.801Z" style="fill:#ffffff;fill-rule:nonzero;"/></svg>