<?xml version="1.0" encoding="UTF-8" standalone="no"?><!DOCTYPE svg PUBLIC "-//W3C//DTD SVG 1.1//EN" "http://www.w3.org/Graphics/SVG/1.1/DTD/svg11.dtd"><svg width="100%" height="100%" viewBox="0 0 64 64" version="1.1" xmlns="http://www.w3.org/2000/svg" xmlns:xlink="http://www.w3.org/1999/xlink" xml:space="preserve" xmlns:serif="http://www.serif.com/" style="fill-rule:evenodd;clip-rule:evenodd;stroke-linecap:round;stroke-linejoin:round;stroke-miterlimit:1.5;"><rect id="Artboard1" x="0" y="-5" width="280.361" height="302.844" style="fill:none;"/><path d="M35.196,13.041c-1.852,-1.54 -4.54,-1.54 -6.392,0c-3.934,3.27 -10.479,8.71 -13.63,11.329c-1.143,0.95 -1.804,2.359 -1.804,3.846c0,4.485 0,14.369 0,20.399c0,2.762 2.238,5 5,5c7.127,0 20.133,0 27.26,0c2.762,0 5,-2.238 5,-5c0,-6.03 0,-15.914 0,-20.399c0,-1.487 -0.661,-2.896 -1.804,-3.846c-3.151,-2.619 -9.696,-8.059 -13.63,-11.329Z" style="fill:none;stroke:#252525;stroke-width:5px;"/><path d="M33.278,24.493c-0.741,-0.616 -1.815,-0.616 -2.556,0c-1.91,1.587 -5.444,4.524 -6.96,5.785c-0.457,0.38 -0.721,0.943 -0.721,1.538c0,2.151 0,7.48 0,10.405c0,1.104 0.895,2 2,2c3.447,0 10.471,0 13.918,0c1.105,0 2,-0.896 2,-2c0,-2.925 0,-8.254 0,-10.405c0,-0.595 -0.264,-1.158 -0.721,-1.538c-1.516,-1.261 -5.05,-4.198 -6.96,-5.785Z" style="fill:none;stroke:#252525;stroke-width:5px;"/></svg>