<?xml version="1.0" encoding="UTF-8" standalone="no"?><!DOCTYPE svg PUBLIC "-//W3C//DTD SVG 1.1//EN" "http://www.w3.org/Graphics/SVG/1.1/DTD/svg11.dtd"><svg width="100%" height="100%" viewBox="0 0 64 64" version="1.1" xmlns="http://www.w3.org/2000/svg" xmlns:xlink="http://www.w3.org/1999/xlink" xml:space="preserve" xmlns:serif="http://www.serif.com/" style="fill-rule:evenodd;clip-rule:evenodd;stroke-linecap:round;stroke-linejoin:round;stroke-miterlimit:1.5;"><rect id="Artboard1" x="-69" y="-5" width="280.361" height="302.844" style="fill:none;"/><path d="M21,11.455c-2.761,0 -5,2.239 -5,5c0,7.902 0,23.188 0,31.09c0,2.761 2.239,5 5,5c6,0 16,0 22,0c2.761,0 5,-2.239 5,-5c0,-7.902 0,-23.188 0,-31.09c0,-2.761 -2.239,-5 -5,-5c-6,0 -16,0 -22,0Z" style="fill:none;stroke:#ffffff;stroke-width:5px;"/><path d="M24.378,21.727l15.244,0" style="fill:none;stroke:#ffffff;stroke-width:5px;"/><path d="M24.378,32l15.244,0" style="fill:none;stroke:#ffffff;stroke-width:5px;"/><path d="M24.378,42.273l15.244,0" style="fill:none;stroke:#ffffff;stroke-width:5px;"/></svg>