<?xml version="1.0" encoding="UTF-8" standalone="no"?><!DOCTYPE svg PUBLIC "-//W3C//DTD SVG 1.1//EN" "http://www.w3.org/Graphics/SVG/1.1/DTD/svg11.dtd"><svg width="100%" height="100%" viewBox="0 0 64 64" version="1.1" xmlns="http://www.w3.org/2000/svg" xmlns:xlink="http://www.w3.org/1999/xlink" xml:space="preserve" xmlns:serif="http://www.serif.com/" style="fill-rule:evenodd;clip-rule:evenodd;stroke-linecap:round;stroke-linejoin:round;stroke-miterlimit:1.5;"><rect id="Artboard1" x="-207" y="-5" width="280.361" height="302.844" style="fill:none;"/><circle cx="32" cy="23.727" r="12" style="fill:none;stroke:#ffffff;stroke-width:5px;"/><path d="M21.181,39.727c-2.183,2.63 -3.648,5.584 -4.492,8.818c-0.224,0.887 -0.027,1.827 0.535,2.549c0.561,0.721 1.425,1.143 2.339,1.143c4.972,0.036 13.388,0.036 13.388,0.036" style="fill:none;stroke:#ffffff;stroke-width:5px;"/><path d="M42.819,39.727c2.183,2.63 3.648,5.584 4.492,8.818c0.224,0.887 0.027,1.827 -0.535,2.549c-0.561,0.721 -1.425,1.143 -2.339,1.143c-4.972,0.036 -13.388,0.036 -13.388,0.036" style="fill:none;stroke:#ffffff;stroke-width:5px;"/></svg>