<?xml version="1.0" encoding="UTF-8" standalone="no"?><!DOCTYPE svg PUBLIC "-//W3C//DTD SVG 1.1//EN" "http://www.w3.org/Graphics/SVG/1.1/DTD/svg11.dtd"><svg width="100%" height="100%" viewBox="0 0 64 64" version="1.1" xmlns="http://www.w3.org/2000/svg" xmlns:xlink="http://www.w3.org/1999/xlink" xml:space="preserve" xmlns:serif="http://www.serif.com/" style="fill-rule:evenodd;clip-rule:evenodd;stroke-linecap:round;stroke-linejoin:round;stroke-miterlimit:1.5;"><rect id="Artboard1" x="-138" y="-5" width="280.361" height="302.844" style="fill:none;"/><path d="M27.355,20.289c7.759,1.883 12.53,9.711 10.647,17.47c-1.883,7.759 -9.711,12.529 -17.47,10.647c-7.758,-1.883 -12.529,-9.711 -10.646,-17.47c1.882,-7.759 9.71,-12.529 17.469,-10.647Z" style="fill:none;stroke:#ffffff;stroke-width:5px;"/><path d="M22.051,19.98c0,0 21.268,-3.596 26.973,-4.56c0.836,-0.142 1.67,0.259 2.082,1c0.634,1.14 1.586,2.853 2.324,4.181c0.276,0.496 0.328,1.086 0.143,1.622c-0.184,0.537 -0.588,0.97 -1.11,1.191c-7.33,3.302 -13.068,10.175 -14.531,14.631" style="fill:none;stroke:#ffffff;stroke-width:5px;"/></svg>